<svg width="256" height="256" viewBox="0 0 256 256" fill="none" xmlns="http://www.w3.org/2000/svg">
  <path d="M128 256C198.692 256 256 198.692 256 128C256 57.3075 198.692 0 128 0C57.3075 0 0 57.3075 0 128C0 198.692 57.3075 256 128 256Z" fill="#000000"/>
  <path d="M179.857 98.7232C175.661 93.3974 169.621 89.627 162.919 88.0217C156.217 86.4164 149.207 87.0672 142.877 89.8856C136.547 92.704 131.271 97.5195 127.832 103.623C124.393 109.727 122.977 116.787 123.786 123.758C123.883 124.704 123.834 125.663 123.642 126.593C123.261 128.363 122.354 129.97 121.043 131.22C119.733 132.47 118.078 133.303 116.292 133.604C113.358 134.093 110.342 133.47 107.911 131.885C105.48 130.299 103.824 127.886 103.335 125.125C102.846 122.363 103.54 119.51 105.204 117.195C106.868 114.881 109.352 113.281 112.167 112.747L115.073 112.194C118.048 111.62 120.731 110.109 122.699 107.889C124.666 105.669 125.808 102.865 125.954 99.9228C126.099 96.9806 125.24 94.0836 123.505 91.6762C121.77 89.2688 119.261 87.5003 116.338 86.6765C113.414 85.8526 110.307 86.0203 107.491 87.1505C104.675 88.2807 102.31 90.3124 100.769 92.9449C96.5358 99.9095 94.1954 108.141 94.026 116.604C93.8567 125.068 95.8633 133.397 99.757 140.578C101.682 144.153 103.912 147.553 106.421 150.742C108.63 153.72 110.225 157.153 111.099 160.834C111.974 164.515 112.107 168.359 111.489 172.107C110.871 175.854 109.519 179.414 107.518 182.566C105.516 185.718 102.908 188.388 99.8724 190.411C93.9023 194.39 86.5686 195.891 79.3982 194.593C72.2278 193.295 65.8324 189.291 61.7061 183.376C57.5799 177.46 56.0601 170.133 57.5138 163.009C58.9676 155.885 63.27 149.653 69.4069 145.751L72.0265 144.248C74.6865 142.711 76.6987 140.309 77.7461 137.419C78.7936 134.528 78.8119 131.337 77.7976 128.433C76.7834 125.529 74.7997 123.104 72.1579 121.534C69.5161 119.964 66.4335 119.283 63.4208 119.596C60.4081 119.91 57.5884 121.198 55.4172 123.276C53.246 125.355 51.8487 128.109 51.4551 131.103C50.7268 136.677 51.4412 142.345 53.5311 147.54C58.6122 159.851 67.7986 169.909 79.5063 175.999C91.214 182.089 104.731 183.786 117.711 180.766C120.608 180.105 123.403 179.096 126.047 177.762C128.68 176.428 131.145 174.777 133.386 172.846C135.626 170.916 137.624 168.723 139.339 166.313C143.333 161.006 145.937 154.744 146.873 148.133C147.809 141.522 147.049 134.782 144.667 128.567C141.962 121.487 141.12 113.825 142.227 106.319C142.629 103.507 143.873 100.885 145.807 98.7871C147.741 96.6895 150.274 95.2141 153.046 94.5493C155.818 93.8844 158.713 94.0574 161.388 95.0487C164.063 96.0399 166.393 97.8037 168.073 100.132C170.863 104.005 171.861 108.871 170.845 113.492C169.828 118.113 166.889 122.048 162.812 124.209L159.887 125.687C157.219 127.212 155.205 129.603 154.154 132.482C153.104 135.362 153.08 138.542 154.089 141.438C155.098 144.334 157.075 146.75 159.713 148.313C162.351 149.877 165.427 150.552 168.434 150.236C171.442 149.92 174.258 148.631 176.427 146.554C178.597 144.476 179.995 141.724 180.391 138.733C181.326 131.864 180.512 124.869 178.03 118.409C174.993 110.608 177.039 108.082 179.863 98.7206L179.857 98.7232Z" fill="white"/>
</svg>